<svg xmlns="http://www.w3.org/2000/svg" viewBox="0 -0.5 32 32" shape-rendering="crispEdges">
<metadata>Made with Pixels to Svg https://codepen.io/shshaw/pen/XbxvNj</metadata>
<path stroke="#007899" d="M13 4h6M11 5h10M10 6h12M7 7h2M10 7h3M15 7h6M6 8h1M9 8h3M16 8h4M6 9h1M9 9h2M17 9h2M6 10h1M10 10h1M10 11h2M9 12h2M23 12h3M9 13h2M21 13h2M26 13h3M10 14h2M20 14h2M29 14h1M11 15h1M20 15h1M30 15h1M30 16h1M14 17h4M13 18h6M2 19h1M10 19h10M2 20h1M8 20h2M12 20h8M3 21h5M12 21h8M12 22h8M13 23h6M13 24h1M19 24h1M12 25h1M20 25h1M12 26h1M21 26h1M12 27h1M21 27h1M12 28h1M12 29h1" />
<path stroke="#002859" d="M13 7h2M21 7h2M12 8h1M15 8h1M20 8h1M23 8h1M11 9h1M16 9h1M19 9h1M23 9h1M11 10h1M16 10h1M19 10h1M23 10h1M12 11h1M15 11h1M20 11h1M23 11h1M13 12h2M21 12h2" />
<path stroke="#68aed4" d="M7 8h2M7 9h2M7 10h3M7 11h3M16 11h4M11 12h2M15 12h6M11 13h6M19 13h2M12 14h8M12 15h8M13 16h6" />
<path stroke="#234975" d="M13 8h2M21 8h2M12 9h4M20 9h3M12 10h4M20 10h3M13 11h2M21 11h2" />
<path stroke="#ffd100" d="M17 10h2" />
<path stroke="#430067" d="M17 13h2M28 15h2M28 16h2M2 17h2M2 18h2" />
</svg>